<svg xmlns="http://www.w3.org/2000/svg" width="14.208" height="11.352" viewBox="0 0 14.208 11.352">
  <g id="Gruppe_23" data-name="Gruppe 23" transform="translate(-269.5 -33.519)">
    <path id="Vereinigungsmenge_3" data-name="Vereinigungsmenge 3" d="M6.664,0l6.543,5.043ZM6.543,0,0,5.043Z" transform="translate(270 34.019)" fill="none" stroke="#232323" stroke-linecap="round" stroke-linejoin="round" stroke-width="1"/>
    <g id="Vereinigungsmenge_5" data-name="Vereinigungsmenge 5" transform="translate(272.323 37.47)" fill="none" stroke-linejoin="round">
      <path d="M5.323,6.9h0ZM8.563,0V0ZM5.323,3.982v0Zm-2.083,0v0ZM0,6.9H0ZM0,0V0ZM3.24,3.982h0Z" stroke="none"/>
      <path d="M 8.562576293945312 6.901378154754639 L 8.562576293945312 -1.876297005765082e-06 L 8.562576293945312 6.901378154754639 M 8.562576293945312 6.901378154754639 L 5.32279634475708 6.901378154754639 L 8.562576293945312 6.901378154754639 M 5.32279634475708 6.901378154754639 L 5.32279634475708 3.981628179550171 L 5.32279634475708 6.901378154754639 M 3.239996194839478 6.901378154754639 L 3.239996194839478 3.981628179550171 L 3.239996194839478 6.901378154754639 M 3.239786148071289 6.901378154754639 L -3.760375875572208e-06 6.901378154754639 L 3.239786148071289 6.901378154754639 M -3.760375875572208e-06 6.901378154754639 L -3.760375875572208e-06 -1.876297005765082e-06 L -3.760375875572208e-06 6.901378154754639 M 5.32279634475708 3.981628179550171 L 3.239996194839478 3.981628179550171 L 5.32279634475708 3.981628179550171 M 8.562576293945312 7.401378154754639 L 5.32279634475708 7.401378154754639 C 5.046656131744385 7.401378154754639 4.82279634475708 7.177517890930176 4.82279634475708 6.901378154754639 L 4.82279634475708 4.481627941131592 L 3.739996194839478 4.481627941131592 L 3.739996194839478 6.901378154754639 C 3.739996194839478 7.17755126953125 3.515946626663208 7.400137424468994 3.239891290664673 7.401378154754639 C 3.23985743522644 7.401378154754639 3.239820003509521 7.401378154754639 3.239786148071289 7.401378154754639 L -3.760375875572208e-06 7.401378154754639 C -0.2761437594890594 7.401378154754639 -0.5000037550926208 7.177517890930176 -0.5000037550926208 6.901378154754639 L -0.5000037550926208 -1.876297005765082e-06 C -0.5000037550926208 -0.276141881942749 -0.2761437594890594 -0.500001847743988 -3.760375875572208e-06 -0.500001847743988 C 0.2761362493038177 -0.500001847743988 0.4999962449073792 -0.276141881942749 0.4999962449073792 -1.876297005765082e-06 L 0.4999962449073792 6.401378154754639 L 2.739996194839478 6.401378154754639 L 2.739996194839478 3.981628179550171 C 2.739996194839478 3.705488204956055 2.963856220245361 3.481628179550171 3.239996194839478 3.481628179550171 L 5.32279634475708 3.481628179550171 C 5.598936080932617 3.481628179550171 5.82279634475708 3.705488204956055 5.82279634475708 3.981628179550171 L 5.82279634475708 6.401378154754639 L 8.062576293945312 6.401378154754639 L 8.062576293945312 -1.876297005765082e-06 C 8.062576293945312 -0.276141881942749 8.286436080932617 -0.500001847743988 8.562576293945312 -0.500001847743988 C 8.838716506958008 -0.500001847743988 9.062576293945312 -0.276141881942749 9.062576293945312 -1.876297005765082e-06 L 9.062576293945312 6.901378154754639 C 9.062576293945312 7.177517890930176 8.838716506958008 7.401378154754639 8.562576293945312 7.401378154754639 Z" stroke="none" fill="#232323"/>
    </g>
  </g>
</svg>
