<svg xmlns="http://www.w3.org/2000/svg" width="11.944" height="11.936" viewBox="0 0 11.944 11.936">
  <path id="Vereinigungsmenge_2" data-name="Vereinigungsmenge 2" d="M5.32,10.936H0l.053-.392.106-.407L.294,9.8.453,9.46l.3-.538.37-.484.393-.377.347-.269.453-.284.453-.215.521-.154.611-.1L4.487,7H6.314l.582.038.612.1.521.154.454.215.453.284.347.269.393.377.37.484.3.538.159.339.136.338.106.407.053.392Zm-1.342-4.8h0a2.425,2.425,0,0,1-.59-1.132,7.168,7.168,0,0,1-.233-1.889A3.729,3.729,0,0,1,3.675.693h0A1.918,1.918,0,0,1,4.392.216,2.845,2.845,0,0,1,5.447,0,2.177,2.177,0,0,1,7.079.693h0a1.956,1.956,0,0,1,.34.918,10.063,10.063,0,0,1,.1,1.662,7.363,7.363,0,0,1-.176,1.788A2.157,2.157,0,0,1,6.768,6.15h0a2.215,2.215,0,0,1-1.318.5A2.191,2.191,0,0,1,3.977,6.141Z" transform="translate(0.571 0.5)" fill="#fff" stroke="#232323" stroke-width="1"/>
</svg>
